# xmcd CD database file
#
# Track frame offsets:
#	150
#	39087
#	70150
#	94425
#	119325
#	211725
#	237925
#
# Disc length: 3484 seconds
#
# Revision: 0
# Processed by: cddbd v1.5PL3 Copyright (c) Steve Scherf et al.
# Submitted via: CDex 1.51
#
DISCID=580d9a07
DTITLE=unknown - tarot music: fate
DYEAR=1900
DGENRE=New Age
TTITLE0=a glance toward heaven
TTITLE1=the book sealed with seven seats
TTITLE2=seven thunders for the prophecy
TTITLE3=the sign of saluation
TTITLE4=in to btrain
TTITLE5=brothers of the universe
TTITLE6=colonization
EXTD=
EXTT0=
EXTT1=
EXTT2=
EXTT3=
EXTT4=
EXTT5=
EXTT6=
PLAYORDER=
